<svg xmlns="http://www.w3.org/2000/svg" width="256" height="256"><path fill-opacity=".016" d="M0 128.004v128.004l128.25-.254 128.25-.254.254-127.75L257.008 0H0v128.004m.485.496c0 70.4.119 99.053.265 63.672.146-35.38.146-92.98 0-128C.604 29.153.485 58.1.485 128.5" fill="#212121" fill-rule="evenodd"/><path fill-opacity=".235" d="M102.478 38.871c-4.991 2.267-9.882 7.073-12.717 12.495-1.715 3.279-2.247 6.357-2.572 14.884L86.779 77H70.071c-19.51 0-24.463 1.08-31.896 6.956-3.384 2.675-5.942 5.891-8.065 10.14L27 100.319v47.163c0 54.858-.198 53.468 8.926 62.592C45.384 219.532 39.898 219 128 219s82.616.532 92.074-8.926c9.124-9.124 8.926-7.734 8.926-62.592v-47.163l-3.11-6.223c-2.123-4.249-4.681-7.465-8.065-10.14C210.392 78.08 205.439 77 185.929 77h-16.708l-.41-10.75c-.455-11.943-2.022-16.307-8-22.285-6.398-6.398-8.876-6.921-32.811-6.921-18.688 0-22.026.239-25.522 1.827m6.557 21.063c-.569 1.064-1.035 5.339-1.035 9.5V77h40v-7.566C148 57.441 148.978 58 128 58c-16.703 0-18 .132-18.965 1.934m-58.112 40.989L48 103.846v88.881l2.636 2.637L53.273 198h149.454l2.637-2.636 2.636-2.637v-88.881l-2.923-2.923L202.154 98H53.846l-2.923 2.923m70.347 12.09c-11.254 2.331-20.386 9.416-25.483 19.769C92.849 138.75 92.5 140.364 92.5 148c0 7.616.352 9.258 3.25 15.144 3.86 7.84 10.147 13.988 18.075 17.674 4.715 2.192 7.117 2.642 14.196 2.66 7.639.02 9.213-.319 15.21-3.271 20.186-9.938 26.517-35.355 13.294-53.374-7.811-10.645-22.599-16.442-35.255-13.82m2.082 21.048c-4.142 1.241-9.081 6.976-9.937 11.54-1.119 5.963 2.082 12.374 7.593 15.211 10.161 5.231 21.377-1.492 21.377-12.812 0-9.935-9.405-16.823-19.033-13.939" fill="#212121" fill-rule="evenodd"/><path fill-opacity=".557" d="M105.994 37.899c-4.833 1.538-8.725 4.031-11.848 7.587C89.121 51.209 88 55.045 88 66.514v10.27l-18.75.398c-16.823.358-19.264.631-23.75 2.658-6.283 2.838-11.898 8.206-15.336 14.66l-2.664 5V148c0 47.513.044 48.595 2.149 53.149 2.747 5.943 9.259 12.455 15.202 15.202 4.632 2.141 4.942 2.149 83.149 2.149s78.517-.008 83.149-2.149c5.943-2.747 12.455-9.259 15.202-15.202 2.105-4.554 2.149-5.636 2.149-53.149V99.5l-2.664-5c-3.438-6.454-9.053-11.822-15.336-14.66-4.486-2.027-6.927-2.3-23.75-2.658L168 76.784v-10.27c0-11.472-1.121-15.304-6.153-21.036-6.476-7.375-8.764-7.953-32.347-8.177-11.55-.11-22.128.159-23.506.598m3.661 20.93c-1.256 1.387-1.655 3.8-1.655 10V77h40v-8.345C148 56.784 148.373 57 127.826 57c-14.73 0-16.695.198-18.171 1.829M51.301 99.772c-1.209.951-2.671 2.995-3.25 4.543-.673 1.802-1.051 17.744-1.051 44.3 0 45.515.035 45.8 5.967 48.868 4.424 2.288 145.642 2.288 150.066 0 5.931-3.067 5.967-3.361 5.967-48.784 0-26.943-.375-42.477-1.075-44.484-2.277-6.531 1.783-6.217-80.14-6.193-68.848.021-74.446.149-76.484 1.75m63.331 15.629c-8.422 3.548-13.942 8.623-18.099 16.639-7.043 13.583-4.45 30.128 6.424 41.003 17.277 17.276 46.477 12.127 56.946-10.043 2.231-4.726 2.596-6.837 2.586-15-.012-11.372-1.865-16.281-9.044-23.955-6.855-7.329-13.715-10.364-24.364-10.781-7.348-.287-9.424.02-14.449 2.137m6.385 19.45c-5.059 2.713-7.287 6.272-7.737 12.358-1.435 19.405 27.291 21.644 29.472 2.298 1.288-11.423-11.583-20.1-21.735-14.656" fill="#212121" fill-rule="evenodd"/><path fill-opacity=".976" d="M107.332 37.915c-4.78 1.205-11.941 5.728-14.288 9.023C89.332 52.151 88 57.727 88 68.051v9.799l-19.75.325-19.75.325-5.364 2.971C36.992 84.874 31.996 90.497 29.339 97c-1.695 4.149-1.839 8.171-1.839 51.5v47l2.358 5.214c2.936 6.494 10.138 13.35 16.67 15.869 4.745 1.829 8.465 1.917 81.472 1.917 73.007 0 76.727-.088 81.472-1.917 6.532-2.519 13.734-9.375 16.67-15.869l2.358-5.214v-47c0-43.329-.144-47.351-1.839-51.5-2.657-6.503-7.653-12.126-13.797-15.529L207.5 78.5l-19.75-.325L168 77.85v-9.799c0-15.242-3.273-22.118-13.13-27.577L149.5 37.5l-19.5-.192c-10.725-.105-20.926.168-22.668.607m2.109 20.503c-1.668 1.218-1.941 2.66-1.941 10.25V77.5h41v-8.832C148.5 56.701 149.026 57 128 57c-12.763 0-17.068.329-18.559 1.418M53.378 98.437C46.817 101.292 47 99.864 47 148.323V192.2l3.4 3.4 3.4 3.4h148.4l3.4-3.4 3.4-3.4v-43.877c0-48.651.207-47.085-6.599-49.929-4.87-2.035-144.341-1.995-149.023.043m64.908 15.949c-9.988 3.275-17.265 9.441-21.967 18.614-2.509 4.894-2.819 6.546-2.818 15 0 7.648.425 10.42 2.179 14.217 3.054 6.613 10.562 14.263 17.195 17.521 4.945 2.428 6.774 2.762 15.125 2.761 8.521-.001 10.097-.303 15.29-2.932 7.053-3.57 13-9.819 16.55-17.392 2.238-4.775 2.655-7.023 2.631-14.175-.024-7.016-.484-9.481-2.635-14.12-5.72-12.334-16.443-19.656-29.942-20.444-4.716-.276-8.92.068-11.608.95m1.704 20.864c-5.318 3.619-7.375 7.124-7.375 12.567 0 9.077 6.513 15.568 15.619 15.568 14.91 0 20.361-20.564 7.525-28.39-4.524-2.759-11.507-2.646-15.769.255" fill="#212121" fill-rule="evenodd"/></svg>